<mxfile host="app.diagrams.net" modified="2020-06-19T09:09:07.787Z" agent="5.0 (Windows NT 10.0; Win64; x64) AppleWebKit/537.36 (KHTML, like Gecko) Chrome/83.0.4103.106 Safari/537.36" etag="N90eshj-N9XNiNkvc678" version="13.2.6" type="github">
  <diagram id="QAx-k87LzNcGFMitbncS" name="Page-1">
    <mxGraphModel dx="1278" dy="585" grid="1" gridSize="10" guides="1" tooltips="1" connect="1" arrows="1" fold="1" page="1" pageScale="1" pageWidth="827" pageHeight="1169" math="0" shadow="0">
      <root>
        <mxCell id="0" />
        <mxCell id="1" parent="0" />
        <mxCell id="xjzEFVUjIHPvtNHWl0Mq-1" value="CommentDeleteController" style="rounded=0;whiteSpace=wrap;html=1;" vertex="1" parent="1">
          <mxGeometry x="110" y="160" width="150" height="40" as="geometry" />
        </mxCell>
        <mxCell id="xjzEFVUjIHPvtNHWl0Mq-2" value="Service" style="rounded=0;whiteSpace=wrap;html=1;" vertex="1" parent="1">
          <mxGeometry x="340" y="160" width="130" height="40" as="geometry" />
        </mxCell>
        <mxCell id="xjzEFVUjIHPvtNHWl0Mq-3" value="Dao" style="rounded=0;whiteSpace=wrap;html=1;" vertex="1" parent="1">
          <mxGeometry x="570" y="160" width="130" height="40" as="geometry" />
        </mxCell>
        <mxCell id="xjzEFVUjIHPvtNHWl0Mq-4" value="" style="endArrow=none;dashed=1;html=1;entryX=0.5;entryY=1;entryDx=0;entryDy=0;" edge="1" parent="1" target="xjzEFVUjIHPvtNHWl0Mq-2">
          <mxGeometry width="50" height="50" relative="1" as="geometry">
            <mxPoint x="405" y="230" as="sourcePoint" />
            <mxPoint x="400" y="390" as="targetPoint" />
          </mxGeometry>
        </mxCell>
        <mxCell id="xjzEFVUjIHPvtNHWl0Mq-5" value="" style="endArrow=none;dashed=1;html=1;entryX=0.5;entryY=1;entryDx=0;entryDy=0;" edge="1" parent="1" source="xjzEFVUjIHPvtNHWl0Mq-13" target="xjzEFVUjIHPvtNHWl0Mq-3">
          <mxGeometry width="50" height="50" relative="1" as="geometry">
            <mxPoint x="635" y="470" as="sourcePoint" />
            <mxPoint x="405" y="210" as="targetPoint" />
          </mxGeometry>
        </mxCell>
        <mxCell id="xjzEFVUjIHPvtNHWl0Mq-6" value="" style="endArrow=none;dashed=1;html=1;entryX=0.5;entryY=1;entryDx=0;entryDy=0;" edge="1" parent="1">
          <mxGeometry width="50" height="50" relative="1" as="geometry">
            <mxPoint x="405" y="465" as="sourcePoint" />
            <mxPoint x="405" y="270" as="targetPoint" />
          </mxGeometry>
        </mxCell>
        <mxCell id="xjzEFVUjIHPvtNHWl0Mq-7" value="" style="html=1;points=[];perimeter=orthogonalPerimeter;" vertex="1" parent="1">
          <mxGeometry x="400" y="230" width="10" height="170" as="geometry" />
        </mxCell>
        <mxCell id="xjzEFVUjIHPvtNHWl0Mq-8" value="" style="html=1;points=[];perimeter=orthogonalPerimeter;" vertex="1" parent="1">
          <mxGeometry x="180" y="230" width="10" height="95" as="geometry" />
        </mxCell>
        <mxCell id="xjzEFVUjIHPvtNHWl0Mq-9" value="commentDelete(Comment comment)" style="html=1;verticalAlign=bottom;endArrow=block;" edge="1" parent="1" source="xjzEFVUjIHPvtNHWl0Mq-8">
          <mxGeometry x="-0.0588" width="80" relative="1" as="geometry">
            <mxPoint x="230" y="310" as="sourcePoint" />
            <mxPoint x="400" y="310" as="targetPoint" />
            <mxPoint as="offset" />
          </mxGeometry>
        </mxCell>
        <mxCell id="xjzEFVUjIHPvtNHWl0Mq-10" value="deleteComment(Comment comment)" style="html=1;verticalAlign=bottom;endArrow=block;" edge="1" parent="1" target="xjzEFVUjIHPvtNHWl0Mq-13">
          <mxGeometry x="-0.0578" width="80" relative="1" as="geometry">
            <mxPoint x="410" y="309.9999999999998" as="sourcePoint" />
            <mxPoint x="580" y="310" as="targetPoint" />
            <mxPoint as="offset" />
          </mxGeometry>
        </mxCell>
        <mxCell id="xjzEFVUjIHPvtNHWl0Mq-11" value="" style="endArrow=none;dashed=1;html=1;" edge="1" parent="1" target="xjzEFVUjIHPvtNHWl0Mq-8">
          <mxGeometry width="50" height="50" relative="1" as="geometry">
            <mxPoint x="185" y="465" as="sourcePoint" />
            <mxPoint x="185" y="330" as="targetPoint" />
          </mxGeometry>
        </mxCell>
        <mxCell id="xjzEFVUjIHPvtNHWl0Mq-12" value="" style="endArrow=none;dashed=1;html=1;entryX=0.5;entryY=1;entryDx=0;entryDy=0;exitX=0.46;exitY=-0.031;exitDx=0;exitDy=0;exitPerimeter=0;" edge="1" parent="1" source="xjzEFVUjIHPvtNHWl0Mq-8" target="xjzEFVUjIHPvtNHWl0Mq-1">
          <mxGeometry width="50" height="50" relative="1" as="geometry">
            <mxPoint x="360" y="310" as="sourcePoint" />
            <mxPoint x="360" y="290" as="targetPoint" />
          </mxGeometry>
        </mxCell>
        <mxCell id="xjzEFVUjIHPvtNHWl0Mq-13" value="" style="html=1;points=[];perimeter=orthogonalPerimeter;" vertex="1" parent="1">
          <mxGeometry x="630" y="230" width="10" height="170" as="geometry" />
        </mxCell>
        <mxCell id="xjzEFVUjIHPvtNHWl0Mq-14" value="" style="endArrow=none;dashed=1;html=1;entryX=0.5;entryY=1;entryDx=0;entryDy=0;" edge="1" parent="1" target="xjzEFVUjIHPvtNHWl0Mq-13">
          <mxGeometry width="50" height="50" relative="1" as="geometry">
            <mxPoint x="635" y="470" as="sourcePoint" />
            <mxPoint x="635" y="200" as="targetPoint" />
          </mxGeometry>
        </mxCell>
        <mxCell id="xjzEFVUjIHPvtNHWl0Mq-17" value="getComment(req)" style="html=1;verticalAlign=bottom;endArrow=block;" edge="1" parent="1" source="xjzEFVUjIHPvtNHWl0Mq-8">
          <mxGeometry x="-0.0588" width="80" relative="1" as="geometry">
            <mxPoint x="230" y="240" as="sourcePoint" />
            <mxPoint x="400" y="240" as="targetPoint" />
            <mxPoint as="offset" />
          </mxGeometry>
        </mxCell>
        <mxCell id="xjzEFVUjIHPvtNHWl0Mq-20" value="int commentno" style="html=1;verticalAlign=bottom;endArrow=block;entryX=0.92;entryY=0.379;entryDx=0;entryDy=0;entryPerimeter=0;" edge="1" parent="1" target="xjzEFVUjIHPvtNHWl0Mq-8">
          <mxGeometry x="-0.0578" width="80" relative="1" as="geometry">
            <mxPoint x="400" y="266.78499999999997" as="sourcePoint" />
            <mxPoint x="229.20000000000005" y="266.78499999999997" as="targetPoint" />
            <mxPoint as="offset" />
          </mxGeometry>
        </mxCell>
      </root>
    </mxGraphModel>
  </diagram>
</mxfile>
